<?xml version="1.0" encoding="iso-8859-1"?>
<!-- Uploaded to: SVG Repo, www.svgrepo.com, Generator: SVG Repo Mixer Tools -->
<svg height="800px" width="800px" version="1.1" id="Layer_1" xmlns="http://www.w3.org/2000/svg" xmlns:xlink="http://www.w3.org/1999/xlink" 
	 viewBox="0 0 512 512" xml:space="preserve">
<g transform="translate(1 1)">
	<g>
		<path style="fill:#FFE100;" d="M498.321,50.2H378.854c-5.12,0-8.533-3.413-8.533-8.533s3.413-8.533,8.533-8.533h119.467
			c5.12,0,8.533,3.413,8.533,8.533S503.441,50.2,498.321,50.2z"/>
		<path style="fill:#FFE100;" d="M472.721,75.8c-2.56,0-4.267-0.853-5.973-2.56c-3.413-3.413-3.413-8.533,0-11.947l19.627-19.627
			L466.747,22.04c-3.413-3.413-3.413-8.533,0-11.947c3.413-3.413,8.533-3.413,11.947,0l25.6,25.6c3.413,3.413,3.413,8.533,0,11.947
			l-25.6,25.6C476.987,74.947,475.281,75.8,472.721,75.8z"/>
		<path style="fill:#FFE100;" d="M395.921,186.733c-4.267,0-8.533,0.853-12.8,2.56c12.8,5.12,21.333,17.067,21.333,31.573V357.4
			c0,29.867-9.387,51.2-17.067,59.733c-5.12,5.973-8.533,17.067-10.24,24.747c-7.68,32.427-41.813,60.587-75.093,60.587h25.6
			c33.28,0,67.413-28.16,75.093-60.587c1.707-7.68,5.12-18.773,10.24-24.747c7.68-8.533,17.067-29.867,17.067-59.733V220.867
			C430.054,202.093,414.694,186.733,395.921,186.733"/>
		<path style="fill:#FFE100;" d="M139.921,280.6l-8.533-17.067"/>
		<path style="fill:#FFE100;" d="M378.854,220.867c0-18.773-15.36-34.133-34.133-34.133c-18.773,0-8.533,15.36-8.533,34.133V178.2
			c0-18.773-15.36-34.133-34.133-34.133s-34.133,15.36-34.133,34.133v-34.133c0-18.773-15.36-34.133-34.133-34.133l0,0
			c-18.773,0-34.133,15.36-34.133,34.133V178.2V41.667c0-18.773,1.707-34.133-17.067-34.133l0,0c-18.773,0-25.6,15.36-25.6,34.133
			v221.867l-15.36-23.04c-2.56-5.12-5.973-9.387-10.24-12.8c-7.68-7.68,0.853,23.04-8.533,18.773
			c-8.533-3.413-34.133-41.813-42.667-42.667c-8.533-0.853-17.067,0.853-23.893,3.413c-4.267,0.853-6.827,3.413-10.24,5.12
			c-10.24,6.827-8.533,14.507-8.533,17.067s48.64,52.053,76.8,102.4c0,0,24.747,40.96,51.2,68.267v25.6
			c0,42.667,8.533,76.8,51.2,76.8h85.333c33.28,0,41.813-28.16,49.493-60.587c1.707-7.68,5.12-18.773,10.24-24.747
			c7.68-8.533,17.067-29.867,17.067-59.733V220.867z"/>
	</g>
	<g>
		<path style="fill:#FFFFFF;" d="M165.521,425.667v-25.6c-26.453-27.307-51.2-68.267-51.2-68.267
			c-28.16-50.347-76.8-99.84-76.8-102.4s-1.707-10.24,8.533-17.067c3.413-1.707,5.973-4.267,10.24-5.12
			c2.56-0.853,5.12-1.707,7.68-1.707c-11.947-2.56-23.04-1.707-33.28,1.707c-3.413,0.853-6.827,3.413-10.24,5.12
			c-10.24,6.827-8.533,14.507-8.533,17.067s48.64,52.053,76.8,102.4c0,0,24.747,40.96,51.2,68.267v25.6
			c0,42.667,8.533,76.8,51.2,76.8h25.6C174.054,502.467,165.521,468.333,165.521,425.667"/>
		<path style="fill:#FFFFFF;" d="M141.627,240.493l15.36,23.04V41.667c0-12.8,3.413-24.747,11.947-29.867
			c-2.56-2.56-5.973-4.267-11.947-4.267c-18.773,0-25.6,15.36-25.6,34.133v186.027C134.801,231.96,138.214,236.227,141.627,240.493"
			/>
	</g>
	<path style="fill:#FFA800;" d="M370.321,186.733c-4.267,0-8.533,0.853-12.8,2.56c12.8,5.12,21.333,17.067,21.333,31.573V357.4
		c0,29.867-9.387,51.2-17.067,59.733c-5.12,5.973-8.533,17.067-10.24,24.747c-7.68,32.427-41.813,60.587-75.093,60.587h25.6
		c33.28,0,67.413-28.16,75.093-60.587c1.707-7.68,5.12-18.773,10.24-24.747c7.68-8.533,17.067-29.867,17.067-59.733V220.867
		C404.454,202.093,389.094,186.733,370.321,186.733"/>
	<path id="SVGCleanerId_0" d="M139.921,289.133c-3.413,0-5.973-1.707-7.68-5.12l-8.533-17.067c-1.707-4.267,0-9.387,3.413-11.093
		c4.267-1.707,9.387,0,11.093,3.413l8.533,17.067c1.707,4.267,0,9.387-3.413,11.093
		C142.481,289.133,141.627,289.133,139.921,289.133z"/>
	<path id="SVGCleanerId_1" d="M353.254,434.2c-3.413,0-6.827-2.56-8.533-5.973c-0.853-4.267,1.707-9.387,5.973-10.24l5.12-0.853
		c18.773-5.12,29.013-7.68,32.427-18.773c1.707-4.267,5.973-6.827,11.093-5.12c4.267,1.707,6.827,5.973,5.12,11.093
		c-6.827,20.48-25.6,24.747-44.373,29.867h-4.267C354.961,434.2,354.107,434.2,353.254,434.2z"/>
	<path id="SVGCleanerId_2" d="M174.054,434.2c-1.707,0-3.413-0.853-5.12-1.707c-5.12-4.267-9.387-6.827-14.507-11.093
		c-6.827-4.267-12.8-9.387-19.627-15.36c-3.413-3.413-3.413-8.533-0.853-11.947c3.413-3.413,8.533-3.413,11.947-0.853
		c5.973,5.12,11.947,9.387,17.92,13.653c5.12,3.413,10.24,6.827,15.36,11.947c3.413,3.413,4.267,8.533,0.853,11.947
		C179.174,433.347,176.614,434.2,174.054,434.2z"/>
	<path d="M302.054,511h-85.333c-46.933,0-85.333-38.4-85.333-85.333V403.48c-25.6-28.16-48.64-65.707-50.347-67.413
		c-19.627-35.84-51.2-71.68-65.707-88.747c-11.947-13.653-12.8-14.507-11.947-19.627c0-3.413-0.853-14.507,11.947-23.04
		c4.267-2.56,7.68-5.12,11.947-5.973c33.28-11.947,76.8,4.267,95.573,36.693V152.6c0-5.12,3.413-8.533,8.533-8.533
		c5.12,0,8.533,3.413,8.533,8.533v110.933c0,3.413-2.56,6.827-5.973,8.533c-3.413,0.853-7.68,0-9.387-3.413l-15.36-23.04
		c-16.213-28.16-52.907-38.4-75.093-30.72c-2.56,0.853-5.12,2.56-8.533,4.267c-5.12,3.413-5.12,5.12-5.12,7.68
		c1.707,1.707,5.12,5.973,7.68,9.387c15.36,17.92,47.787,54.613,68.267,91.307c0,0,24.747,40.107,50.347,66.56
		c1.707,1.707,2.56,3.413,2.56,5.973v25.6c0,37.547,30.72,68.267,68.267,68.267h85.333c29.013,0,60.587-24.747,66.56-53.76
		c2.56-12.8,6.827-23.04,11.947-29.013c5.12-5.973,15.36-24.747,15.36-53.76V220.867c0-14.507-11.093-25.6-25.6-25.6
		s-25.6,11.093-25.6,25.6c0,5.12-3.413,8.533-8.533,8.533s-8.533-3.413-8.533-8.533V178.2c0-14.507-11.093-25.6-25.6-25.6
		c-14.507,0-25.6,11.093-25.6,25.6c0,5.12-3.413,8.533-8.533,8.533c-5.12,0-8.533-3.413-8.533-8.533v-34.133
		c0-14.507-11.093-25.6-25.6-25.6s-25.6,11.093-25.6,25.6V178.2c0,5.12-3.413,8.533-8.533,8.533c-5.12,0-8.533-3.413-8.533-8.533
		V41.667c0-14.507-11.093-25.6-25.6-25.6c-14.507,0-25.6,11.093-25.6,25.6v42.667c0,5.12-3.413,8.533-8.533,8.533
		c-5.12,0-8.533-3.413-8.533-8.533V41.667C123.707,17.773,142.481-1,166.374-1s42.667,18.773,42.667,42.667v68.267
		c6.827-5.12,16.213-8.533,25.6-8.533c23.893,0,42.667,18.773,42.667,42.667l0,0c6.827-5.12,16.213-8.533,25.6-8.533
		c23.893,0,42.667,18.773,42.667,42.667v8.533c6.827-5.12,16.213-8.533,25.6-8.533c23.893,0,42.667,18.773,42.667,42.667V357.4
		c0,31.573-10.24,55.467-18.773,65.707c-3.413,3.413-5.973,11.093-8.533,21.333C377.147,480.28,338.747,511,302.054,511z"/>
	<path d="M139.921,118.467c0-5.12-3.413-8.533-8.533-8.533c-5.12,0-8.533,3.413-8.533,8.533s3.413,8.533,8.533,8.533
		C136.507,127,139.921,123.587,139.921,118.467"/>
	<path d="M498.321,41.667H378.854c-5.12,0-8.533-3.413-8.533-8.533s3.413-8.533,8.533-8.533h119.467c5.12,0,8.533,3.413,8.533,8.533
		S503.441,41.667,498.321,41.667z"/>
	<path d="M472.721,67.267c-2.56,0-4.267-0.853-5.973-2.56c-3.413-3.413-3.413-8.533,0-11.947l19.627-19.627l-19.627-19.627
		c-3.413-3.413-3.413-8.533,0-11.947c3.413-3.413,8.533-3.413,11.947,0l25.6,25.6c3.413,3.413,3.413,8.533,0,11.947l-25.6,25.6
		C476.987,66.413,475.281,67.267,472.721,67.267z"/>
	<g>
		<path id="SVGCleanerId_0_1_" d="M139.921,289.133c-3.413,0-5.973-1.707-7.68-5.12l-8.533-17.067
			c-1.707-4.267,0-9.387,3.413-11.093c4.267-1.707,9.387,0,11.093,3.413l8.533,17.067c1.707,4.267,0,9.387-3.413,11.093
			C142.481,289.133,141.627,289.133,139.921,289.133z"/>
	</g>
	<path d="M199.654,289.133c-5.12,0-8.533-3.413-8.533-8.533V178.2c0-5.12,3.413-8.533,8.533-8.533c5.12,0,8.533,3.413,8.533,8.533
		v102.4C208.187,285.72,204.774,289.133,199.654,289.133z"/>
	<path d="M267.921,280.6c-5.12,0-8.533-3.413-8.533-8.533V178.2c0-5.12,3.413-8.533,8.533-8.533s8.533,3.413,8.533,8.533v93.867
		C276.454,277.187,273.041,280.6,267.921,280.6z"/>
	<path d="M336.187,289.133c-5.12,0-8.533-3.413-8.533-8.533v-59.733c0-5.12,3.413-8.533,8.533-8.533c5.12,0,8.533,3.413,8.533,8.533
		V280.6C344.721,285.72,341.307,289.133,336.187,289.133z"/>
	<g>
		<path id="SVGCleanerId_1_1_" d="M353.254,434.2c-3.413,0-6.827-2.56-8.533-5.973c-0.853-4.267,1.707-9.387,5.973-10.24l5.12-0.853
			c18.773-5.12,29.013-7.68,32.427-18.773c1.707-4.267,5.973-6.827,11.093-5.12c4.267,1.707,6.827,5.973,5.12,11.093
			c-6.827,20.48-25.6,24.747-44.373,29.867h-4.267C354.961,434.2,354.107,434.2,353.254,434.2z"/>
	</g>
	<g>
		<path id="SVGCleanerId_2_1_" d="M174.054,434.2c-1.707,0-3.413-0.853-5.12-1.707c-5.12-4.267-9.387-6.827-14.507-11.093
			c-6.827-4.267-12.8-9.387-19.627-15.36c-3.413-3.413-3.413-8.533-0.853-11.947c3.413-3.413,8.533-3.413,11.947-0.853
			c5.973,5.12,11.947,9.387,17.92,13.653c5.12,3.413,10.24,6.827,15.36,11.947c3.413,3.413,4.267,8.533,0.853,11.947
			C179.174,433.347,176.614,434.2,174.054,434.2z"/>
	</g>
</g>
</svg>